<svg width="64" height="48" viewBox="0 0 64 48" fill="none" xmlns="http://www.w3.org/2000/svg">
<path d="M61.5053 3.86631C59.1953 1.12017 54.9299 0 46.7843 0H17.2152C8.883 0 4.54545 1.19242 2.24392 4.11608C0 6.96667 0 11.1668 0 16.9798V28.0595C0 39.3213 2.6624 45.0392 17.2152 45.0392H46.7843C53.8483 45.0392 57.7627 44.0509 60.2951 41.6273C62.8921 39.1421 64 35.0845 64 28.0595V16.9798C64 10.8495 63.8265 6.62461 61.5053 3.86631ZM41.0883 24.0493L27.661 31.0666C27.3608 31.2235 27.0326 31.3013 26.7047 31.3013C26.3335 31.3013 25.9632 31.2014 25.6351 31.0028C25.0174 30.6285 24.6402 29.959 24.6402 29.2369V15.2474C24.6402 14.5265 25.0164 13.8576 25.6328 13.4831C26.2495 13.1086 27.0165 13.083 27.6563 13.4154L41.0836 20.3874C41.7667 20.7421 42.1955 21.4473 42.1965 22.2167C42.1976 22.9868 41.7704 23.693 41.0883 24.0493Z" fill="white"/>
</svg>
