<svg width="64" height="39" viewBox="0 0 64 39" fill="none" xmlns="http://www.w3.org/2000/svg">
<g clip-path="url(#clip0_26_266)">
<path d="M63.6608 32.977C63.5834 32.8099 63.5111 32.6714 63.4439 32.5603C62.3335 30.5605 60.2116 28.1059 57.0794 25.1956L57.0132 25.129L56.9802 25.0963L56.9466 25.0628H56.913C55.4912 23.7077 54.5911 22.7965 54.2141 22.33C53.5245 21.4414 53.37 20.5419 53.7469 19.6305C54.0132 18.9419 55.0138 17.4876 56.746 15.2658C57.657 14.0883 58.3786 13.1445 58.9117 12.4335C62.7552 7.32387 64.4215 4.05872 63.9101 2.63683L63.7117 2.30455C63.5783 2.10451 63.234 1.9215 62.6791 1.7546C62.1232 1.58806 61.4125 1.56051 60.546 1.67151L50.9495 1.7378C50.794 1.68271 50.5719 1.68785 50.2829 1.7546C49.994 1.82136 49.8493 1.85486 49.8493 1.85486L49.6823 1.93831L49.5498 2.03857C49.4388 2.10486 49.3165 2.22146 49.1831 2.38812C49.0503 2.5542 48.9396 2.74911 48.8506 2.97121C47.8058 5.6592 46.618 8.15837 45.2848 10.4686C44.4627 11.8461 43.7079 13.04 43.0186 14.0508C42.3299 15.0613 41.7523 15.8058 41.2861 16.283C40.8192 16.7607 40.3981 17.1435 40.0195 17.4325C39.6419 17.7218 39.3536 17.8439 39.1536 17.7992C38.9536 17.7546 38.7651 17.7102 38.5866 17.6659C38.2759 17.4658 38.0259 17.1938 37.8375 16.8494C37.648 16.5051 37.5207 16.0718 37.4541 15.5497C37.3875 15.0273 37.3485 14.578 37.3373 14.2002C37.3267 13.8229 37.3315 13.2891 37.3543 12.6005C37.3773 11.9116 37.3875 11.4454 37.3875 11.2011C37.3875 10.3568 37.4042 9.44045 37.4371 8.4519C37.4707 7.46333 37.4979 6.68009 37.5207 6.10307C37.5434 5.52544 37.5539 4.91437 37.5539 4.27011C37.5539 3.62585 37.5146 3.1206 37.4371 2.75389C37.3607 2.38765 37.2432 2.03215 37.0883 1.68749C36.9325 1.3432 36.7043 1.07686 36.4051 0.887785C36.1053 0.698944 35.7325 0.549085 35.289 0.437744C34.1114 0.171289 32.6119 0.02715 30.7899 0.00474128C26.6582 -0.0396093 24.0034 0.227194 22.826 0.804803C22.3595 1.04885 21.9373 1.38229 21.5599 1.80409C21.1599 2.293 21.1041 2.5598 21.3929 2.60369C22.726 2.80338 23.6697 3.28109 24.2251 4.03632L24.4253 4.43654C24.581 4.72528 24.7364 5.23648 24.892 5.96944C25.0474 6.70237 25.1476 7.51318 25.1917 8.40134C25.3026 10.0233 25.3026 11.4117 25.1917 12.5667C25.0805 13.7221 24.9755 14.6216 24.8752 15.2659C24.775 15.9101 24.6251 16.4322 24.4253 16.8319C24.2251 17.2318 24.092 17.4762 24.0252 17.5649C23.9585 17.6536 23.903 17.7095 23.8589 17.7314C23.5701 17.8421 23.2698 17.8985 22.959 17.8985C22.6478 17.8985 22.2703 17.7427 21.8261 17.4316C21.382 17.1204 20.9211 16.6931 20.4434 16.1487C19.9657 15.6043 19.427 14.8434 18.827 13.866C18.2274 12.8887 17.6053 11.7336 16.9611 10.4008L16.428 9.43414C16.0948 8.81229 15.6397 7.90685 15.0621 6.71859C14.4841 5.52989 13.9733 4.38003 13.5292 3.26928C13.3516 2.8028 13.0849 2.44764 12.7296 2.20325L12.5628 2.10299C12.4519 2.01429 12.2739 1.9201 12.0298 1.81973C11.7853 1.71947 11.5301 1.64758 11.2633 1.60334L2.13303 1.66964C1.20004 1.66964 0.566989 1.881 0.233658 2.30315L0.100256 2.50284C0.0336131 2.61407 0 2.79171 0 3.03622C0 3.28061 0.0666426 3.58058 0.200045 3.93571C1.5329 7.06829 2.98235 10.0894 4.54839 12.9995C6.11444 15.9096 7.4753 18.2537 8.63015 20.0299C9.78525 21.8073 10.9627 23.4848 12.1623 25.0615C13.362 26.6389 14.1561 27.6498 14.5447 28.0938C14.9337 28.5387 15.2392 28.8714 15.4613 29.0935L16.2945 29.8931C16.8277 30.4263 17.6106 31.065 18.6436 31.809C19.6768 32.5536 20.8207 33.2864 22.0759 34.009C23.3312 34.7306 24.7917 35.319 26.4579 35.7744C28.124 36.2301 29.7456 36.4131 31.323 36.3248H35.1552C35.9322 36.2576 36.521 36.0134 36.9213 35.5917L37.0538 35.4246C37.1431 35.2918 37.2266 35.0861 37.3034 34.8086C37.3815 34.5312 37.4202 34.2253 37.4202 33.8925C37.3975 32.9373 37.4701 32.0765 37.6365 31.3103C37.8026 30.5442 37.9917 29.9666 38.2035 29.5776C38.4151 29.189 38.6538 28.861 38.9197 28.5951C39.1859 28.3287 39.3757 28.1673 39.4871 28.1117C39.5978 28.0558 39.6861 28.0179 39.7527 27.9951C40.2858 27.8175 40.9133 27.9895 41.6359 28.512C42.3581 29.0341 43.0355 29.6787 43.6688 30.4448C44.3021 31.2115 45.0628 32.072 45.9511 33.0269C46.8404 33.9824 47.6176 34.6925 48.2836 35.1597L48.9498 35.5597C49.3949 35.8262 49.9725 36.0707 50.6836 36.2928C51.3933 36.5149 52.0151 36.5706 52.5488 36.4595L61.0791 36.3264C61.9229 36.3264 62.5792 36.1866 63.0448 35.9094C63.5117 35.6317 63.7888 35.3258 63.8781 34.9933C63.9674 34.6602 63.9722 34.2822 63.8951 33.8595C63.816 33.4381 63.7383 33.1434 63.6608 32.977Z" fill="white"/>
</g>
<defs>
<clipPath id="clip0_26_266">
<rect width="64" height="38.4" fill="white"/>
</clipPath>
</defs>
</svg>
