<svg width="223" height="35" viewBox="0 0 223 35" fill="none" xmlns="http://www.w3.org/2000/svg">
<path fill-rule="evenodd" clip-rule="evenodd" d="M63.6663 0.708459C65.4784 1.40898 65.7221 1.96531 65.7221 5.41088V9.31829H69.0138C73.329 9.31829 75.0097 11.4321 75.7327 17.7668C76.4612 24.1407 75.8489 25.98 72.9988 25.98C70.7955 25.98 70.7594 25.8977 70.2465 19.734C69.6742 12.8518 69.5516 12.5301 67.7603 13.2282C66.8257 13.5931 66.5236 14.9713 66.5236 18.8681C66.5236 21.7932 66.1076 24.4478 65.5618 25.0025C64.5014 26.0802 60.4242 26.3384 59.8319 25.365C59.6268 25.0261 59.3406 19.5108 59.1972 13.1084C58.9824 3.50238 59.1443 1.33322 60.1253 0.702758C61.5848 -0.234794 61.2233 -0.235609 63.6663 0.708459ZM188.967 2.56157C189.414 3.12198 189.913 4.31286 190.075 5.20887C190.246 6.15457 191.123 6.94713 192.165 7.09863C194.596 7.45052 194.589 10.299 192.157 10.6501C190.475 10.8936 190.326 11.4036 189.953 18.2417L189.552 25.5727H186.783C184.512 25.5727 183.914 25.2062 183.457 23.5363C182.462 19.9018 182.652 3.58709 183.701 2.52084C184.956 1.24525 187.934 1.26806 188.967 2.56157ZM221.746 2.17384C222.818 2.86621 223.514 23.3547 222.521 24.987C221.865 26.0663 217.53 26.3612 216.925 25.3674C216.721 25.031 216.431 19.8839 216.282 13.9311C216.059 5.00442 216.221 2.9721 217.208 2.33757C218.647 1.41386 220.469 1.34788 221.746 2.17384ZM26.062 3.19529C26.6046 4.08641 23.5918 21.8404 22.3599 25.0131C21.7708 26.5314 21.1248 26.8475 19.0346 26.6422C16.6894 26.4117 16.2903 25.9629 14.882 21.9675L13.3231 17.5477L12.0079 21.5602C10.8586 25.0644 10.3865 25.6037 8.28339 25.8179C6.95853 25.9531 5.48298 25.5833 5.0045 24.9976C4.20862 24.0234 0 8.4793 0 6.51541C0 6.05193 0.745384 5.26833 1.65668 4.77227C2.93585 4.07664 3.73494 4.15239 5.16479 5.10461C6.65156 6.09429 7.12443 7.35685 7.56125 11.5013C8.26095 18.144 9.29406 20.0093 10.0386 15.974C11.0942 10.2583 14.8997 9.66692 16.4129 14.9835C17.5077 18.8331 18.0207 17.8214 18.8879 10.0962C19.19 7.40816 19.7647 4.567 20.1663 3.7834C20.9653 2.22027 25.2124 1.79752 26.062 3.19529ZM34.7109 4.89445C36.0085 7.0017 34.791 8.87436 32.1245 8.87436C29.2944 8.87436 27.7908 6.82006 28.9754 4.57026C29.9316 2.7538 33.5183 2.95663 34.7109 4.89445ZM141.517 10.0669C145.227 11.6422 147.146 15.9431 145.881 19.8423C144.688 23.5143 142.599 25.22 138.636 25.7601L135.284 26.217L135.792 29.4475C136.376 33.1546 135.352 34.9401 132.646 34.9401C129.997 34.9401 129.293 33.5505 128.722 27.2018C128.439 24.0658 128.007 19.4603 127.761 16.9678L127.314 12.4364L130.381 11.1176C136.454 8.507 137.592 8.39948 141.517 10.0669ZM211.224 11.6715C212.705 12.6571 213.172 13.9295 213.622 18.2002C214.414 25.7201 214.226 25.98 207.972 25.98C201.477 25.98 198.256 24.4364 196.663 20.5616C195.369 17.4133 196.168 13.1736 198.414 11.2789C201.332 8.81897 207.211 8.99899 211.224 11.6715ZM53.6925 10.7397C54.7906 11.3042 55.8029 12.3672 55.9423 13.1019C56.2669 14.8157 53.4569 15.7516 51.3786 14.621C49.1208 13.3935 44.6662 13.5059 45.0829 14.7799C45.2665 15.3403 47.505 16.0652 50.057 16.3919C55.3508 17.0696 56.9057 18.0536 56.9057 20.7261C56.9057 23.9607 53.3808 25.98 47.7335 25.98C42.313 25.98 39.4902 24.6295 40.3197 22.4326C40.8799 20.9493 45.2609 20.5502 46.0856 21.9072C46.7557 23.0085 50.2646 22.9433 50.9498 21.816C51.7361 20.5241 49.7556 19.4904 46.4647 19.4758C40.0199 19.4473 37.6684 13.6656 42.8797 10.6623C45.03 9.42337 51.2183 9.46736 53.6925 10.7397ZM92.5191 10.7706C94.5508 12.2808 94.3857 16.1752 92.2145 17.9632C91.2463 18.7598 89.2169 19.6476 87.7061 19.9352C86.1432 20.2333 84.9578 20.9469 84.9578 21.5904C84.9578 23.0712 86.5231 23.0223 89.6377 21.4429C92.3828 20.0517 95.3772 20.5241 95.3772 22.3487C95.3772 25.6045 84.5739 27.2768 81.2445 24.5366C77.2186 21.2222 76.4733 14.9794 79.7121 11.6886C81.3527 10.0213 82.458 9.68892 86.3708 9.68892C89.0069 9.68892 91.7015 10.163 92.5191 10.7706ZM111.756 10.4831C114.218 11.4345 114.519 14.2382 112.239 14.9737C111.374 15.2531 109.913 15.0715 108.993 14.5714C107.067 13.5238 103.426 13.7812 103.167 14.9835C103.071 15.4315 104.975 16.031 107.399 16.3161C109.824 16.6004 112.425 17.0924 113.18 17.4093C116.404 18.7622 115.461 23.7538 111.707 25.2045C108.586 26.4109 101.568 26.1388 99.5962 24.7362C96.0272 22.1948 100.22 19.7462 104.321 21.9765C105.215 22.4627 106.846 22.6305 107.945 22.3503C109.591 21.9308 109.774 21.6295 108.975 20.652C108.441 19.9979 106.81 19.4636 105.35 19.4636C101.62 19.4636 98.8091 18.2116 98.2064 16.2827C97.5492 14.1771 98.9927 11.4296 101.24 10.5092C103.63 9.53089 109.254 9.51704 111.756 10.4831ZM160.919 11.3213C165.435 14.1201 166.537 20.2586 163.109 23.5306C161.664 24.9105 159.88 25.5418 156.657 25.813C152.82 26.1364 151.932 25.9295 150.24 24.3134C148.703 22.8456 148.279 21.627 148.293 18.7109C148.329 11.2243 154.723 7.48229 160.919 11.3213ZM180.736 11.2659C180.736 11.9094 179.568 12.7435 178.141 13.1198C175.295 13.8692 174.875 14.8442 174.533 21.4999C174.324 25.5711 174.322 25.5727 171.519 25.5727H168.713L167.643 18.333C166.805 12.6661 166.784 10.9596 167.547 10.4807C168.084 10.1434 171.271 9.91943 174.629 9.98216C179.351 10.0701 180.736 10.3617 180.736 11.2659ZM35.2896 12.5692C35.8514 13.2575 36.4846 16.5564 36.6954 19.9002L37.0793 25.98H34.6171C33.2626 25.98 31.8624 25.5222 31.5057 24.9618C30.7283 23.74 29.0363 12.2181 29.5573 11.6895C30.4157 10.8163 34.3518 11.4207 35.2896 12.5692ZM84.4761 14.2072C83.8085 16.9091 84.4889 17.498 86.9583 16.3552C89.6882 15.091 89.701 12.1326 86.9768 12.1326C85.5148 12.1326 84.8528 12.6816 84.4761 14.2072ZM203.59 13.7381C201.883 16.98 203.165 22.7218 205.595 22.7218C207.094 22.7218 207.901 19.3878 207.251 15.8714C206.651 12.6213 204.759 11.5192 203.59 13.7381ZM135.185 13.4904C134.416 14.2716 134.549 20.4834 135.362 21.7875C136.429 23.4997 139.459 21.4975 139.459 19.0807C139.459 14.7424 137.051 11.5933 135.185 13.4904ZM155.565 15.2466C154.202 17.8353 154.741 22.2347 156.462 22.5654C158.466 22.9515 159.198 19.1052 157.724 15.9414L156.539 13.3976L155.565 15.2466Z" fill="white"/>
</svg>
