<svg width="277" height="479" viewBox="0 0 277 479" fill="none" xmlns="http://www.w3.org/2000/svg">
<g clip-path="url(#clip0_26_246)">
<path d="M38.7507 477.915C38.7507 478.517 39.2341 479 39.836 479H275.915C276.517 479 277 478.517 277 477.915C277 477.314 276.517 476.83 275.915 476.83H39.836C39.2341 476.83 38.7507 477.314 38.7507 477.915Z" fill="#484565"/>
<path d="M162.901 0.299446C162.901 0.299446 142.917 -4.54144 130.824 24.7044C120.745 49.0821 113.595 62.1005 121.776 70.9435C124.704 74.107 128.881 75.8118 133.186 75.9576L179.245 77.471C179.245 77.471 196.155 33.1464 185.876 17.1195C175.597 1.08347 162.901 0.299446 162.901 0.299446Z" fill="#2F2E41"/>
<path d="M172.441 73.788L150.287 81.0721V49.1915H170.389L172.441 73.788Z" fill="#F6A6A9"/>
<path d="M155.44 460.101H134.682L122.651 349.262H154.729L155.44 460.101Z" fill="#F6A6A9"/>
<path d="M114.47 477.915C112.29 477.915 110.348 477.86 108.879 477.724C103.361 477.222 98.1078 473.156 95.4628 470.777C94.2771 469.71 93.894 468.005 94.5142 466.538C94.9611 465.48 95.8458 464.696 96.9403 464.386L111.506 460.229L135.092 444.321L135.356 444.795C135.457 444.968 137.773 449.143 138.549 451.96C138.841 453.036 138.768 453.929 138.321 454.613C138.011 455.096 137.582 455.37 137.226 455.525C137.655 455.971 138.996 456.874 143.109 457.53C149.129 458.488 150.387 452.252 150.442 451.988L150.478 451.778L150.661 451.659C153.525 449.818 155.285 448.979 155.896 449.152C156.279 449.262 156.909 449.453 158.614 466.428C158.787 466.957 159.982 470.868 159.17 474.597C158.286 478.663 140.528 477.259 136.971 476.94C136.87 476.949 123.573 477.897 114.461 477.897V477.915H114.47Z" fill="#2F2E41"/>
<path d="M202.32 460.101H181.571L169.531 349.262H201.609L202.32 460.101Z" fill="#F6A6A9"/>
<path d="M161.359 477.915C159.18 477.915 157.237 477.86 155.768 477.724C150.25 477.222 144.997 473.156 142.352 470.777C141.166 469.71 140.783 468.005 141.403 466.538C141.85 465.48 142.735 464.696 143.83 464.386L158.395 460.229L181.981 444.321L182.246 444.795C182.346 444.968 184.663 449.143 185.438 451.96C185.73 453.036 185.657 453.929 185.21 454.613C184.9 455.096 184.471 455.37 184.115 455.525C184.544 455.971 185.885 456.874 189.998 457.53C196.018 458.488 197.276 452.252 197.331 451.988L197.368 451.778L197.55 451.659C200.414 449.818 202.174 448.979 202.785 449.152C203.168 449.262 203.798 449.453 205.503 466.428C205.677 466.957 206.871 470.868 206.06 474.597C205.175 478.663 187.417 477.259 183.86 476.94C183.76 476.949 170.462 477.897 161.35 477.897V477.915H161.359Z" fill="#2F2E41"/>
<path d="M208.294 187.863H107.456L143.702 68.6279H183.906L208.294 187.863Z" fill="#D7F1E4"/>
<path d="M104.711 254.769C103.507 262.072 98.6368 267.314 93.8302 266.466C89.0236 265.618 86.0959 259.018 87.2998 251.715C87.7376 248.789 88.8959 246.027 90.6745 243.647L96.1651 212.77L111.114 215.896L104.109 245.999C105.03 248.844 105.24 251.852 104.72 254.769L104.711 254.769Z" fill="#F6A6A9"/>
<path d="M150.05 68.6462C150.05 68.6462 125.005 67.9898 122.369 74.572C119.733 81.1632 88.7592 237.95 88.7592 237.95H109.189L150.05 68.6462Z" fill="#D7F1E4"/>
<path d="M155.367 56.7218C167.562 56.7218 177.448 46.8402 177.448 34.6506C177.448 22.4611 167.562 12.5795 155.367 12.5795C143.172 12.5795 133.286 22.4611 133.286 34.6506C133.286 46.8402 143.172 56.7218 155.367 56.7218Z" fill="#F6A6A9"/>
<path d="M158.833 7.58358C158.833 7.58358 130.486 49.7294 135.256 76.0215L118.766 65.6924C118.766 65.6924 130.377 12.47 147.678 8.34025L158.833 7.57446L158.833 7.58358Z" fill="#2F2E41"/>
<path d="M187.335 187.863H121.165L84.9558 336.399C84.29 342.671 88.2666 348.524 94.3683 350.156C114.233 355.471 161.898 363.01 234.051 342.024C240.992 340.009 244.932 332.689 242.752 325.797L187.335 187.872V187.863Z" fill="#2F2E41"/>
<path d="M98.0895 89.7783L97.6335 89.3224L97.1775 89.7783C74.987 67.616 39.0243 67.6433 16.852 89.8239C-5.32027 112.014 -5.76718 148.407 16.4233 170.569L97.6882 251.715L178.898 170.469C201.071 148.279 200.606 111.886 178.424 89.7236C156.234 67.5613 120.271 67.5886 98.0987 89.7692C98.0987 89.7692 98.0895 89.7783 98.0895 89.7783Z" fill="#34367A"/>
<path d="M158.103 79.7866L176.436 70.3875C184.818 67.2879 194.166 68.3271 201.664 73.2045C224.465 88.028 269.412 120.711 250.094 136.865C224.638 158.162 190.226 120.392 190.226 120.392L158.103 79.7866Z" fill="#D7F1E4"/>
<path d="M157.702 95.85C151.327 92.094 148.198 85.6577 150.725 81.4732C153.251 77.2978 160.466 76.9605 166.85 80.7165C169.422 82.1843 171.584 84.2629 173.152 86.779L199.967 103.061L191.649 115.861L166.093 98.4482C163.101 98.275 160.219 97.3816 157.693 95.8409H157.702L157.702 95.85Z" fill="#F6A6A9"/>
<path d="M175.925 110.61L183.55 92.4038L220.808 104.729L204.144 132.453L175.925 110.61Z" fill="#D7F1E4"/>
</g>
<defs>
<clipPath id="clip0_26_246">
<rect width="277" height="479" fill="white"/>
</clipPath>
</defs>
</svg>
