<svg width="930" height="610" viewBox="0 0 930 610" fill="none" xmlns="http://www.w3.org/2000/svg">
<g clip-path="url(#clip0_5_2)">
<path d="M585.602 315.468H241.602V608.468H585.602V315.468Z" fill="white"/>
<path d="M586.602 609.468H240.602V314.468H586.602V609.468ZM242.602 607.468H584.602V316.468H242.602V607.468Z" fill="#3F3D56"/>
<path d="M456.602 372.468H370.602V608.468H456.602V372.468Z" fill="#F9D9B6"/>
<path d="M456.602 372.468H370.602V608.468H456.602V372.468Z" fill="#F9D9B6"/>
<path opacity="0.2" d="M242.602 336.968V384.506L585.602 406.468L584.591 347.81L242.602 336.968Z" fill="black"/>
<path d="M605.602 288.468H221.602V372.468H605.602V288.468Z" fill="white"/>
<path d="M606.602 373.468H220.602V287.468H606.602V373.468ZM222.602 371.468H604.602V289.468H222.602V371.468Z" fill="#3F3D56"/>
<path d="M456.602 280.468H370.602V371.468H456.602V280.468Z" fill="#F9D9B6"/>
<path d="M404.394 201.124C427.096 234.776 405.707 288.9 405.707 288.9C405.707 288.9 347.512 288.464 324.81 254.812C302.109 221.16 323.498 167.036 323.498 167.036C323.498 167.036 381.693 167.473 404.394 201.124Z" fill="#F9D9B6"/>
<path d="M414.81 201.124C392.109 234.776 413.498 288.9 413.498 288.9C413.498 288.9 471.693 288.464 494.394 254.812C517.096 221.16 495.707 167.036 495.707 167.036C495.707 167.036 437.512 167.473 414.81 201.124Z" fill="#F9D9B6"/>
<path d="M353.602 226.468C358.573 226.468 362.602 222.439 362.602 217.468C362.602 212.498 358.573 208.468 353.602 208.468C348.632 208.468 344.602 212.498 344.602 217.468C344.602 222.439 348.632 226.468 353.602 226.468Z" fill="#3F3D56"/>
<path d="M407.602 317.468C412.573 317.468 416.602 313.439 416.602 308.468C416.602 303.498 412.573 299.468 407.602 299.468C402.632 299.468 398.602 303.498 398.602 308.468C398.602 313.439 402.632 317.468 407.602 317.468Z" fill="#3F3D56"/>
<path d="M407.602 514.468C412.573 514.468 416.602 510.439 416.602 505.468C416.602 500.498 412.573 496.468 407.602 496.468C402.632 496.468 398.602 500.498 398.602 505.468C398.602 510.439 402.632 514.468 407.602 514.468Z" fill="#3F3D56"/>
<path d="M377.602 256.468C380.916 256.468 383.602 253.782 383.602 250.468C383.602 247.154 380.916 244.468 377.602 244.468C374.289 244.468 371.602 247.154 371.602 250.468C371.602 253.782 374.289 256.468 377.602 256.468Z" fill="#3F3D56"/>
<path d="M467.602 205.468C470.916 205.468 473.602 202.782 473.602 199.468C473.602 196.154 470.916 193.468 467.602 193.468C464.289 193.468 461.602 196.154 461.602 199.468C461.602 202.782 464.289 205.468 467.602 205.468Z" fill="#3F3D56"/>
<path d="M428.602 346.468C431.916 346.468 434.602 343.782 434.602 340.468C434.602 337.154 431.916 334.468 428.602 334.468C425.289 334.468 422.602 337.154 422.602 340.468C422.602 343.782 425.289 346.468 428.602 346.468Z" fill="#3F3D56"/>
<path d="M392.602 424.468C395.916 424.468 398.602 421.782 398.602 418.468C398.602 415.154 395.916 412.468 392.602 412.468C389.289 412.468 386.602 415.154 386.602 418.468C386.602 421.782 389.289 424.468 392.602 424.468Z" fill="#3F3D56"/>
<path d="M423.602 451.468C426.916 451.468 429.602 448.782 429.602 445.468C429.602 442.154 426.916 439.468 423.602 439.468C420.289 439.468 417.602 442.154 417.602 445.468C417.602 448.782 420.289 451.468 423.602 451.468Z" fill="#3F3D56"/>
<path d="M416.602 564.468C419.916 564.468 422.602 561.782 422.602 558.468C422.602 555.154 419.916 552.468 416.602 552.468C413.289 552.468 410.602 555.154 410.602 558.468C410.602 561.782 413.289 564.468 416.602 564.468Z" fill="#3F3D56"/>
<path d="M786.636 597.422L775.663 597.421L770.442 555.095L786.638 555.096L786.636 597.422Z" fill="#FFB7B7"/>
<path d="M789.434 608.059L754.052 608.057V607.61C754.052 603.957 755.503 600.455 758.086 597.872C760.668 595.289 764.171 593.838 767.824 593.838L789.435 593.839L789.434 608.059Z" fill="#2F2E41"/>
<path d="M813.437 597.422L824.411 597.421L829.631 555.095L813.435 555.096L813.437 597.422Z" fill="#FFB7B7"/>
<path d="M810.638 593.839L832.249 593.838C835.901 593.838 839.405 595.289 841.988 597.872C844.57 600.455 846.021 603.958 846.022 607.61V608.057L810.639 608.059L810.638 593.839Z" fill="#2F2E41"/>
<path d="M784.197 266.658C788.91 257.171 785.041 245.66 775.555 240.947C766.068 236.234 754.557 240.103 749.844 249.59C745.131 259.076 749 270.587 758.487 275.3C767.973 280.013 779.484 276.144 784.197 266.658Z" fill="#FFB7B7"/>
<path d="M752.898 390.067C752.898 390.067 746.841 415.303 749.869 427.417C752.898 439.53 761.983 522.306 761.983 522.306L768.039 587.92L792.266 589.939L789.238 513.221L792.266 446.597L809.427 511.202V588.149L835.121 589.158L835.673 488.994C835.673 488.994 837.692 410.256 824.569 400.162C811.446 390.067 809.427 388.048 809.427 388.048L752.898 390.067Z" fill="#2F2E41"/>
<path d="M789.471 279.027L812.455 291.141L815.484 396.124C815.484 396.124 802.361 388.048 782.172 398.143C761.983 408.237 748.86 401.171 748.86 401.171L760.973 355.746L755.926 295.178L763.145 288.626L789.471 279.027Z" fill="#D7F1E4"/>
<path d="M763.147 286.715L758.954 290.131C758.954 290.131 732.708 303.254 731.699 312.339L749.869 361.802C749.869 361.802 754.916 372.906 750.879 376.944C746.841 380.982 742.803 391.077 743.812 396.124C744.822 401.171 737.756 422.37 745.831 422.37C753.907 422.37 773.087 373.916 772.077 354.736C771.068 335.557 770.369 285.318 763.147 286.715Z" fill="#2F2E41"/>
<path d="M780.793 280.165L790.039 278.626C790.039 278.626 824.36 287.711 829.407 302.853L815.275 338.184C815.275 338.184 825.369 402.789 822.341 402.789H819.313C819.313 402.789 827.388 408.846 822.341 410.865C817.294 412.884 805.18 429.035 802.152 421.969C799.124 414.902 780.954 331.118 782.972 312.948C784.991 294.777 779 282.068 780.793 280.165Z" fill="#2F2E41"/>
<path d="M784.805 239.344L785.704 237.536L781.183 235.29C781.183 235.29 776.197 227.177 767.174 229.457C758.151 231.737 754.091 233.101 754.091 233.101L749.583 235.37L751.846 237.621L747.786 238.986L750.498 240.333L747.342 242.147L749.041 251.445C749.041 251.445 751.863 244.393 757.287 247.088C762.711 249.783 772.632 245.695 772.632 245.695L781.252 262.376C781.252 262.376 783.03 256.529 786.201 258.088C786.201 258.088 794.3 245.189 784.805 239.344Z" fill="#2F2E41"/>
<path d="M812.882 416.477C812.384 415.259 812.158 413.947 812.221 412.633C812.285 411.319 812.635 410.034 813.249 408.87C813.862 407.706 814.723 406.69 815.771 405.895C816.82 405.1 818.029 404.544 819.316 404.267L823.201 372.519L835.863 383.287L830.232 411.785C830.554 413.976 830.061 416.21 828.847 418.063C827.632 419.916 825.78 421.258 823.641 421.837C821.503 422.415 819.226 422.189 817.243 421.201C815.261 420.213 813.709 418.532 812.882 416.477Z" fill="#FFB7B7"/>
<path d="M758.729 414.292C759.096 413.029 759.181 411.7 758.979 410.4C758.777 409.1 758.292 407.86 757.558 406.767C756.825 405.674 755.861 404.756 754.734 404.076C753.608 403.397 752.346 402.972 751.037 402.833L743.807 371.676L732.359 383.726L740.98 411.466C740.892 413.679 741.619 415.848 743.023 417.562C744.427 419.275 746.411 420.414 748.599 420.763C750.787 421.111 753.026 420.645 754.893 419.452C756.761 418.26 758.125 416.424 758.729 414.292Z" fill="#FFB7B7"/>
<path d="M813.37 294.626C813.37 294.626 826.493 289.579 830.531 304.721C834.569 319.863 839.616 350.147 839.616 350.147C839.867 366.986 838.972 366.986 839.616 383.459L836.588 398.6L819.427 396.581L820.176 358.036L811.352 318.853L813.37 294.626Z" fill="#2F2E41"/>
<path d="M740.784 306.282L734.562 306.948C734.562 306.948 728.671 311.33 728.671 321.424C728.671 331.519 727.661 361.802 727.661 361.802C727.661 361.802 727.089 362.511 731.699 388.048C733.946 400.495 737.829 406.369 737.829 406.369L750.36 394.733L748.86 364.831L752.898 348.68L740.784 306.282Z" fill="#2F2E41"/>
<path d="M929 609.468H1C0.734784 609.468 0.480429 609.363 0.292892 609.175C0.105356 608.988 0 608.733 0 608.468C0 608.203 0.105356 607.949 0.292892 607.761C0.480429 607.574 0.734784 607.468 1 607.468H929C929.265 607.468 929.52 607.574 929.707 607.761C929.895 607.949 930 608.203 930 608.468C930 608.733 929.895 608.988 929.707 609.175C929.52 609.363 929.265 609.468 929 609.468Z" fill="#3F3D56"/>
<path d="M230.649 312.233C242.814 312.233 252.676 302.371 252.676 290.205C252.676 278.039 242.814 268.177 230.649 268.177C218.483 268.177 208.621 278.039 208.621 290.205C208.621 302.371 218.483 312.233 230.649 312.233Z" fill="#FFB8B8"/>
<path d="M222.696 420.547C222.418 420.547 222.139 420.535 221.86 420.51C220.474 420.395 219.129 419.988 217.912 419.316C216.695 418.644 215.633 417.723 214.797 416.612C213.961 415.501 213.369 414.227 213.06 412.871C212.75 411.516 212.731 410.11 213.003 408.747C213.067 408.43 213.148 408.117 213.245 407.809L180.734 369.358C179.675 368.095 179.051 366.525 178.955 364.879C178.859 363.234 179.296 361.601 180.201 360.224L180.26 360.152L209.524 331.297C211.121 329.722 213.279 328.846 215.523 328.861C217.766 328.877 219.912 329.784 221.487 331.381C223.062 332.979 223.938 335.137 223.922 337.38C223.906 339.624 223 341.769 221.402 343.344C221.366 343.38 221.329 343.416 221.291 343.452L200.096 363.601L223.299 400.842C223.739 400.865 224.176 400.919 224.608 401.003C227.008 401.482 229.145 402.836 230.603 404.802C232.061 406.767 232.736 409.205 232.498 411.641C232.259 414.077 231.124 416.337 229.313 417.983C227.501 419.629 225.143 420.543 222.696 420.547Z" fill="#FFB8B8"/>
<path d="M266.928 596.776H277.924L283.154 554.366L266.926 554.367L266.928 596.776Z" fill="#FFB8B8"/>
<path d="M264.124 593.187L285.777 593.186C289.437 593.186 292.948 594.639 295.536 597.227C298.124 599.815 299.578 603.325 299.578 606.984V607.433L264.124 607.435L264.124 593.187Z" fill="#2F2E41"/>
<path d="M157.641 581.575L167.089 587.2L193.281 553.436L179.338 545.134L157.641 581.575Z" fill="#FFB8B8"/>
<path d="M157.068 577.055L175.673 588.132C178.818 590.005 181.091 593.05 181.99 596.597C182.89 600.145 182.343 603.905 180.471 607.049L180.241 607.435L149.779 589.297L157.068 577.055Z" fill="#2F2E41"/>
<path d="M280.518 581.797H268.206C267.209 581.799 266.247 581.43 265.505 580.764C264.764 580.097 264.296 579.179 264.193 578.188L251.78 461.509C251.749 461.216 251.622 460.94 251.418 460.726C251.215 460.512 250.947 460.37 250.655 460.323C250.364 460.277 250.065 460.327 249.805 460.467C249.545 460.607 249.338 460.829 249.216 461.098L226.824 510.681L187.179 575.327C186.666 576.156 185.871 576.772 184.941 577.063C184.011 577.354 183.007 577.3 182.113 576.911L166.275 569.943C165.751 569.712 165.283 569.373 164.9 568.947C164.518 568.522 164.23 568.02 164.056 567.475C163.882 566.93 163.826 566.354 163.891 565.785C163.957 565.217 164.143 564.669 164.436 564.178L200.88 503.155L212.058 451.739C208.542 429.442 223.613 396.293 223.765 395.96L223.84 395.798L265.352 379.573L265.56 379.828C281.931 433.552 291.907 491.368 284.541 578.099C284.45 579.105 283.988 580.042 283.244 580.725C282.5 581.409 281.528 581.791 280.518 581.797Z" fill="#2F2E41"/>
<path d="M222.168 401.231L221.974 400.824C221.882 400.63 212.651 381.162 205.536 360.354C204.168 356.331 203.651 352.067 204.018 347.833C204.384 343.599 205.626 339.487 207.664 335.758C209.729 331.991 212.554 328.693 215.959 326.074C219.365 323.455 223.278 321.572 227.449 320.544C234.691 318.808 242.316 319.732 248.934 323.147C255.552 326.561 260.723 332.24 263.505 339.148C269.149 353.262 267.35 368.327 265.657 380.174L265.623 380.412L265.408 380.515L222.168 401.231Z" fill="#F9D9B6"/>
<path d="M257.357 277.762H222.379V262.515C230.056 259.465 237.569 256.872 242.11 262.515C246.154 262.515 250.032 264.122 252.891 266.981C255.75 269.84 257.357 273.718 257.357 277.762Z" fill="#2F2E41"/>
<path d="M220.443 259.825C199.532 259.825 193.68 286.035 193.68 300.821C193.68 309.068 197.409 312.017 203.269 313.015L205.339 301.977L210.186 313.49C211.832 313.498 213.562 313.466 215.354 313.433L216.998 310.049L220.663 313.372C235.341 313.394 247.205 315.534 247.205 300.821C247.205 286.035 242.072 259.825 220.443 259.825Z" fill="#2F2E41"/>
<path d="M313.387 289.159C313.52 289.402 313.643 289.653 313.755 289.91C314.318 291.181 314.606 292.557 314.6 293.947C314.594 295.338 314.294 296.711 313.72 297.977C313.146 299.243 312.312 300.374 311.27 301.295C310.229 302.217 309.005 302.907 307.678 303.322C307.369 303.418 307.056 303.497 306.739 303.56L288.582 350.525C287.982 352.06 286.903 353.361 285.505 354.234C284.107 355.107 282.465 355.507 280.822 355.373L280.731 355.355L241.378 343.508C239.232 342.86 237.431 341.386 236.371 339.41C235.311 337.434 235.078 335.119 235.725 332.972C236.371 330.825 237.844 329.022 239.818 327.96C241.793 326.899 244.109 326.664 246.256 327.308C246.305 327.323 246.354 327.338 246.403 327.354L274.247 336.294L295.804 298.077C295.614 297.68 295.451 297.27 295.318 296.851C294.588 294.515 294.752 291.991 295.778 289.769C296.804 287.547 298.62 285.786 300.871 284.827C303.123 283.869 305.651 283.781 307.964 284.582C310.277 285.382 312.209 287.013 313.387 289.159Z" fill="#FFB8B8"/>
<path d="M663.219 169.868C648.507 150.181 621.582 145.43 608.203 155.428C594.823 165.426 591.75 192.594 606.461 212.281C620.078 230.504 644.749 235.474 658.337 228.646C658.293 228.86 658.291 229.079 658.329 229.293L659.095 233.081C659.154 233.37 659.285 233.639 659.477 233.862C659.668 234.086 659.914 234.257 660.19 234.359C660.466 234.461 660.764 234.491 661.055 234.446C661.346 234.4 661.621 234.281 661.853 234.1L668.341 229.032C668.573 228.85 668.755 228.613 668.869 228.341C668.984 228.07 669.027 227.774 668.995 227.481C668.962 227.188 668.856 226.908 668.685 226.668C668.514 226.428 668.285 226.236 668.019 226.109L664.529 224.45C664.407 224.394 664.278 224.354 664.145 224.329C674.62 213.256 676.865 188.131 663.219 169.868Z" fill="#34367A"/>
<path d="M631.04 162.436C638.236 163.579 644.719 167.441 649.15 173.225C653.581 179.01 655.622 186.274 654.852 193.52C654.694 195.18 657.287 195.169 657.444 193.52C658.186 185.71 655.948 177.909 651.178 171.68C646.409 165.452 639.462 161.257 631.729 159.936C630.097 159.659 629.396 162.156 631.04 162.436Z" fill="white"/>
<path d="M172.198 194.561C185.059 173.618 179.53 146.842 165.297 138.101C151.065 129.36 124.683 136.538 111.821 157.481C99.916 176.866 104.41 201.628 115.773 211.734C115.559 211.772 115.353 211.85 115.169 211.965L111.932 214.076C111.685 214.237 111.484 214.458 111.347 214.719C111.209 214.98 111.141 215.271 111.148 215.566C111.155 215.86 111.238 216.148 111.387 216.402C111.537 216.655 111.749 216.867 112.003 217.015L119.109 221.172C119.364 221.321 119.652 221.402 119.946 221.408C120.241 221.414 120.532 221.345 120.792 221.207C121.052 221.069 121.273 220.867 121.433 220.619C121.593 220.372 121.687 220.088 121.707 219.794L121.96 215.938C121.966 215.803 121.956 215.669 121.93 215.537C136.089 221.18 160.267 213.988 172.198 194.561Z" fill="#F9D9B6"/>
<path d="M167.22 161.912C168.816 169.021 167.621 176.472 163.882 182.726C160.143 188.981 154.146 193.561 147.128 195.521C145.527 195.987 146.495 198.393 148.086 197.93C155.617 195.735 162.04 190.774 166.067 184.041C170.094 177.309 171.426 169.303 169.797 161.629C169.452 160.01 166.873 160.281 167.22 161.912Z" fill="white"/>
<path d="M815.265 42.9271C814.189 18.3741 794.611 -0.71059 777.924 0.0203296C761.238 0.75125 743.403 21.4747 744.479 46.0277C745.474 68.7545 763.066 86.7507 778.141 88.758C777.984 88.9094 777.858 89.0894 777.77 89.2882L776.271 92.8498C776.156 93.1213 776.113 93.4175 776.146 93.7103C776.178 94.003 776.285 94.2827 776.456 94.5226C776.627 94.7626 776.856 94.9548 777.122 95.0812C777.388 95.2076 777.682 95.2638 777.976 95.2446L786.191 94.708C786.485 94.6888 786.769 94.5948 787.017 94.4349C787.264 94.275 787.467 94.0545 787.605 93.7944C787.743 93.5342 787.812 93.2431 787.806 92.9486C787.801 92.654 787.719 92.3659 787.571 92.1116L785.621 88.7753C785.55 88.6606 785.467 88.5545 785.371 88.4594C800.262 85.2041 816.262 65.7033 815.265 42.9271Z" fill="#F9D9B6"/>
<path d="M792.854 18.6683C798.158 23.6642 801.341 30.5059 801.747 37.7811C802.153 45.0563 799.75 52.2096 795.035 57.7645C793.97 59.0472 796.119 60.4982 797.177 59.2238C802.187 53.1869 804.729 45.4792 804.294 37.6465C803.858 29.8137 800.478 22.4351 794.83 16.9903C793.638 15.8425 791.652 17.5119 792.854 18.6683Z" fill="white"/>
<path d="M661.775 113.809C655.343 113.404 649.099 111.48 643.554 108.196C638.009 104.911 633.321 100.359 629.875 94.9134C628.909 93.3695 627.649 91.6729 628.317 89.7726C628.55 89.0439 629.023 88.4158 629.659 87.991C630.295 87.5661 631.057 87.3696 631.819 87.4336C633.79 87.6735 635.062 89.6018 635.305 91.4494C635.581 93.5453 634.102 95.1906 632.276 95.9694C627.815 97.8723 623.315 94.9315 619.681 92.5845C611.401 87.2367 602.294 82.4004 592.261 81.7909C582.979 81.2271 573.025 84.8668 567.861 92.9166C566.958 94.3249 569.201 95.6263 570.1 94.2249C575.22 86.2415 585.572 83.3742 594.573 84.6081C599.936 85.4545 605.115 87.2129 609.886 89.8071C612.36 91.091 614.759 92.5142 617.11 94.0103C619.347 95.5712 621.718 96.9305 624.195 98.0721C628.327 99.7693 633.796 99.6367 636.682 95.7292C639.375 92.0837 637.294 86.0147 632.791 84.9898C631.803 84.7951 630.782 84.8485 629.82 85.1453C628.858 85.4422 627.985 85.9731 627.278 86.6905C626.572 87.408 626.054 88.2895 625.772 89.2561C625.491 90.2227 625.453 91.2441 625.663 92.2288C626.112 94.3755 627.729 96.4763 628.98 98.231C632.739 103.52 637.637 107.898 643.313 111.042C648.989 114.187 655.298 116.018 661.775 116.401C663.443 116.484 663.438 113.891 661.775 113.809Z" fill="#CCCCCC"/>
</g>
<defs>
<clipPath id="clip0_5_2">
<rect width="930" height="609.874" fill="white"/>
</clipPath>
</defs>
</svg>
